<svg width="88" height="24" viewBox="0 0 88 24" fill="none" xmlns="http://www.w3.org/2000/svg">
  <path d="M9.69521 0.5H0V23.5L9.69521 0.5Z" fill="#FA0C00" />
  <path d="M16.5166 0.5H26.1992V23.5L16.5166 0.5Z" fill="#FA0C00" />
  <path d="M13.1063 8.97705L19.2771 23.5001H15.2285L13.3842 18.8763H8.86816L13.1063 8.97705Z" fill="#FA0C00" />
  <path d="M42.016 15.1265L43.1592 18.3782C43.1971 18.4596 43.254 18.4972 43.355 18.4972H45.553C45.6731 18.4972 45.692 18.4408 45.673 18.3218L41.1318 5.80996C41.1128 5.70971 41.0939 5.69092 40.9928 5.69092H38.2643C38.1885 5.69092 38.1443 5.74731 38.1443 5.82875C38.1064 6.48661 38.0495 6.6871 37.9674 6.88133L33.9188 18.303C33.8998 18.4408 33.9441 18.4972 34.0578 18.4972H36.0221C36.1421 18.4972 36.1989 18.4596 36.2431 18.3406L37.3232 15.1265H42.016ZM37.9485 13.0025C38.5422 11.2232 39.3254 8.94262 39.6412 7.63943H39.6601C40.0517 9.00527 40.9739 11.7119 41.3907 13.0025H37.9485Z" fill="#FA0C00" />
  <path d="M51.5113 18.6915C52.6924 18.6915 53.9493 18.4785 55.2251 17.9334C55.3262 17.8958 55.3451 17.852 55.3451 17.758C55.3072 17.4071 55.263 16.8997 55.263 16.5112V4.73241C55.263 4.65722 55.263 4.61963 55.1683 4.61963H53.0271C52.945 4.61963 52.9071 4.65722 52.9071 4.75747V8.74847C52.5724 8.71088 52.3387 8.69209 52.0608 8.69209C48.6059 8.69209 46.4836 10.9539 46.4836 13.7795C46.4836 17.0563 48.6627 18.6915 51.5113 18.6915ZM52.9071 16.5112C52.5534 16.624 52.1618 16.6678 51.7639 16.6678C50.1975 16.6678 48.9153 15.7907 48.9153 13.6605C48.9153 11.7746 50.2354 10.6594 51.985 10.6594C52.3387 10.6594 52.6482 10.697 52.9071 10.7972V16.5112Z" fill="#FA0C00" />
  <path d="M62.1758 8.69189C59.2262 8.69189 57.4009 10.9349 57.4009 13.7042C57.4009 16.179 58.8536 18.6913 62.1316 18.6913C64.9044 18.6913 66.8498 16.6676 66.8498 13.6415C66.8498 10.9725 65.2013 8.69189 62.1758 8.69189ZM62.0558 10.6592C63.7233 10.6592 64.4307 12.0814 64.4307 13.7042C64.4307 15.7091 63.3885 16.7052 62.1758 16.7052C60.6789 16.7052 59.7947 15.4584 59.7947 13.6603C59.7947 11.812 60.7358 10.6592 62.0558 10.6592Z" fill="#FA0C00" />
  <path d="M69.0635 4.61963C68.9814 4.61963 68.9246 4.65722 68.9246 4.75747V18.0901C68.9246 18.1465 68.9814 18.2467 69.0635 18.2655C70.0046 18.5537 70.9899 18.6915 72.0068 18.6915C74.9185 18.6915 77.7481 16.8997 77.7481 13.2908C77.7481 10.6782 75.9417 8.69209 73.1121 8.69209C72.4616 8.69209 71.8552 8.79233 71.3247 8.96776L71.2994 4.77626C71.2994 4.63843 71.2615 4.61963 71.1226 4.61963H69.0635ZM75.3291 13.5289C75.3291 15.6904 73.8385 16.7054 72.2279 16.7054C71.8931 16.7054 71.5963 16.6866 71.3247 16.6052V10.9163C71.6342 10.7972 72.0068 10.697 72.6953 10.697C74.249 10.697 75.3291 11.6744 75.3291 13.5289Z" fill="#FA0C00" />
  <path d="M85.7388 14.2304C86.6989 14.2304 87.4884 14.2116 87.76 14.149C87.861 14.1302 87.8989 14.0926 87.9179 14.0112C87.9747 13.7981 88 13.3533 88 12.8082C88 10.9537 86.8757 8.69189 83.9703 8.69189C81.0018 8.69189 79.3533 11.0915 79.3533 13.7981C79.3533 16.1977 80.6291 18.6913 84.204 18.6913C85.543 18.6913 86.4083 18.4783 87.1536 18.1275C87.2294 18.0899 87.2673 18.0272 87.2673 17.9144V16.2917C87.2673 16.1977 87.2105 16.179 87.1536 16.2165C86.4083 16.5298 85.5999 16.6864 84.7156 16.6864C82.7134 16.6864 81.8039 15.59 81.7471 14.2304H85.7388ZM81.7471 12.5513C81.905 11.599 82.5113 10.5652 83.8693 10.5652C85.3662 10.5652 85.7578 11.812 85.7578 12.3759C85.7578 12.3947 85.7578 12.4761 85.7578 12.5325C85.6757 12.5513 85.423 12.5513 84.6777 12.5513H81.7471Z" fill="#FA0C00" />
</svg>