<svg width="103" height="20" viewBox="0 0 103 20" fill="none" xmlns="http://www.w3.org/2000/svg">
  <path d="M8.47713 9.79763C8.47713 8.08996 7.17685 6.88977 5.57964 6.88977C3.98242 6.88977 2.68214 8.11019 2.68214 9.79763C2.68214 11.4649 3.98242 12.7056 5.57964 12.7056C7.17846 12.704 8.47713 11.5053 8.47713 9.79763ZM8.49996 14.8803V13.5586C7.71195 14.474 6.53893 15.0421 5.13424 15.0421C2.21554 15.0421 0 12.8052 0 9.79763C0 6.80881 2.30037 4.53293 5.1995 4.53293C6.56344 4.53293 7.71362 5.10268 8.50157 5.99622V4.71506H11.1217V14.8803H8.49996Z" fill="black" />
  <path d="M23.8487 12.6231C22.9318 12.6231 22.6773 12.2977 22.6773 11.4446V6.93175H24.361V4.71505H22.6773V2.23525H19.9919V4.71505H16.5332V4.09705C16.5332 3.24243 16.8742 2.91707 17.8123 2.91707H18.4013V0.944753H17.1091C14.8936 0.944753 13.8494 1.63592 13.8494 3.74991V4.71349H12.3583V6.93022H13.8494V14.8787H16.5349V6.93022H19.9936V11.9116C19.9936 13.9851 20.824 14.8803 22.9971 14.8803H24.3822V12.6231H23.8487Z" fill="black" />
  <path d="M33.4794 8.88229C33.2885 7.56062 32.1579 6.76826 30.8381 6.76826C29.5166 6.76826 28.43 7.5404 28.1543 8.88229H33.4794ZM28.1315 10.4685C28.324 11.9723 29.453 12.8269 30.8805 12.8269C32.0095 12.8269 32.884 12.3179 33.3946 11.5053H36.1436C35.5041 13.6597 33.4794 15.0421 30.8169 15.0421C27.5996 15.0421 25.3417 12.8876 25.3417 9.81782C25.3417 6.74803 27.7285 4.53133 30.8821 4.53133C34.057 4.53133 36.3574 6.76832 36.3574 9.81782C36.3574 10.042 36.3361 10.2646 36.2937 10.4685H28.1315Z" fill="black" />
  <path d="M53.4307 9.79763C53.4307 8.15064 52.1304 6.88977 50.5332 6.88977C48.936 6.88977 47.6357 8.11019 47.6357 9.79763C47.6357 11.4649 48.936 12.7056 50.5332 12.7056C52.1304 12.704 53.4307 11.4446 53.4307 9.79763ZM44.9927 4.71506H47.6128V6.03669C48.4008 5.10111 49.5722 4.53293 50.9785 4.53293C53.8548 4.53293 56.1128 6.79012 56.1128 9.77741C56.1128 12.7662 53.8124 15.0437 50.915 15.0437C49.5722 15.0437 48.4645 14.5346 47.6977 13.6816V19.0631H44.9927V4.71506Z" fill="black" />
  <path d="M65.5574 9.79763C65.5574 8.08996 64.2587 6.88977 62.6597 6.88977C61.0626 6.88977 59.7624 8.11019 59.7624 9.79763C59.7624 11.4649 61.0626 12.7056 62.6597 12.7056C64.2587 12.704 65.5574 11.5053 65.5574 9.79763ZM65.5804 14.8803V13.5586C64.7923 14.474 63.619 15.0421 62.2142 15.0421C59.2958 15.0421 57.0803 12.8052 57.0803 9.79763C57.0803 6.80881 59.3806 4.53293 62.2782 4.53293C63.642 4.53293 64.7923 5.10268 65.5804 5.99622V4.71506H68.2006V14.8803H65.5804Z" fill="black" />
  <path d="M40.2695 5.71134C40.2695 5.71134 40.9369 4.53293 42.5699 4.53293C43.2682 4.53293 43.7201 4.76175 43.7201 4.76175V7.35521C43.7201 7.35521 42.7347 6.77455 41.8292 6.89131C40.9238 7.00806 40.3511 7.80196 40.3544 8.86363V14.8818H37.6494V4.71661H40.2695V5.71134Z" fill="black" />
  <path d="M80.4378 4.71503L73.8222 19.0303H71.0325L73.6299 13.4963L69.2381 4.71503H72.4001L74.9695 10.5822L77.6059 4.71503H80.4378Z" fill="black" />
  <path d="M101.556 4.48466L94.9975 0.87314C93.0722 -0.186962 90.6659 1.13778 90.6659 3.25954V3.63004C90.6659 3.96472 90.8533 4.2745 91.1567 4.44107L92.3952 5.1229C92.7588 5.32372 93.2124 5.07309 93.2124 4.67302V3.75146C93.2124 3.29068 93.7348 3.00269 94.1524 3.23308L99.8329 6.36202C100.251 6.59241 100.251 7.16839 99.8329 7.39725L94.1524 10.5262C93.7348 10.7566 93.2124 10.4686 93.2124 10.0078V9.5174C93.2124 7.39565 90.8062 6.06937 88.8796 7.131L82.3211 10.7425C80.3958 11.8027 80.3958 14.4553 82.3211 15.5153L88.8796 19.1269C90.8043 20.1869 93.2124 18.8622 93.2124 16.7405V16.37C93.2124 16.0353 93.025 15.727 92.7216 15.5589L91.4831 14.8755C91.1195 14.6747 90.6659 14.9254 90.6659 15.3255V16.247C90.6659 16.7078 90.1441 16.9957 89.7259 16.7654L84.0454 13.6364C83.6278 13.406 83.6278 12.8301 84.0454 12.5997L89.7259 9.4707C90.1441 9.24031 90.6659 9.52831 90.6659 9.98909V10.4795C90.6659 12.6012 93.0722 13.9276 94.9975 12.8659L101.556 9.25434C103.481 8.19733 103.481 5.54476 101.556 4.48466Z" fill="black" />
</svg>