<svg width="20" height="18" viewBox="0 0 20 18" fill="none" xmlns="http://www.w3.org/2000/svg">
  <path d="M5.637 16.1302L5.80448 16.7582L5.637 16.1302ZM5.97849 16.1588L6.24262 15.5649L5.97849 16.1588ZM1.57254 17.214L1.74002 17.8421L1.57254 17.214ZM2.34091 13.2031L1.8074 13.5744L2.34091 13.2031ZM2.38432 13.7317L2.96569 14.0224L2.38432 13.7317ZM18.3501 9C18.3501 12.9894 14.6858 16.35 10.0001 16.35V17.65C15.2556 17.65 19.6501 13.8471 19.6501 9H18.3501ZM10.0001 1.65C14.6858 1.65 18.3501 5.01056 18.3501 9H19.6501C19.6501 4.15288 15.2556 0.35 10.0001 0.35V1.65ZM1.65015 9C1.65015 5.01056 5.31448 1.65 10.0001 1.65V0.35C4.74469 0.35 0.350146 4.15288 0.350146 9H1.65015ZM2.87441 12.8318C2.09499 11.7119 1.65015 10.4002 1.65015 9H0.350146C0.350146 10.6833 0.88663 12.2515 1.8074 13.5744L2.87441 12.8318ZM1.57787 16.798L2.96569 14.0224L1.80294 13.441L0.415116 16.2166L1.57787 16.798ZM5.46952 15.5021L1.40506 16.586L1.74002 17.8421L5.80448 16.7582L5.46952 15.5021ZM10.0001 16.35C8.6457 16.35 7.36982 16.0662 6.24262 15.5649L5.71435 16.7527C7.00782 17.328 8.46368 17.65 10.0001 17.65V16.35ZM5.80448 16.7582C5.76834 16.7679 5.73666 16.7627 5.71435 16.7527L6.24262 15.5649C6.00543 15.4594 5.7329 15.4319 5.46952 15.5021L5.80448 16.7582ZM0.415116 16.2166C-0.0280608 17.103 0.782501 18.0974 1.74002 17.8421L1.40506 16.586C1.52995 16.5527 1.63568 16.6824 1.57787 16.798L0.415116 16.2166ZM1.8074 13.5744C1.78824 13.5469 1.77524 13.4964 1.80294 13.441L2.96569 14.0224C3.16334 13.627 3.11066 13.1712 2.87441 12.8318L1.8074 13.5744Z" fill="#E7D6C9" />
</svg>