<svg width="108" height="24" viewBox="0 0 108 24" fill="none" xmlns="http://www.w3.org/2000/svg">
  <path d="M26.1414 16.9337L26.8122 16.7944C27.4041 16.6352 27.5619 16.5556 27.5619 15.3617V5.9895C27.5619 4.79558 27.3843 4.69609 26.8122 4.5568L26.1414 4.41751V3.86035H36.8349L37.0322 7.82016H36.4205C35.9273 6.72574 35.6116 6.14868 35.3157 5.71092C34.6843 4.79558 34.27 4.71599 32.9086 4.71599C31.9024 4.71599 31.4092 4.83538 31.1132 4.91497V9.9891H31.6459C33.027 9.9891 33.3427 9.82992 33.5795 9.39215C33.8557 8.89468 34.0135 8.51661 34.1911 7.87986H34.783V13.0137H34.1911C34.0135 12.3968 33.8557 11.9989 33.5795 11.4218C33.3427 10.9243 33.0862 10.8248 31.6459 10.8248H31.1132V14.6454C31.1132 16.4163 31.1724 16.6153 33.0862 16.6153C34.6646 16.6153 34.9803 16.4163 35.6313 15.4413C35.9865 14.904 36.3613 14.0683 36.8743 12.8147H37.5057L37.2295 17.4909H26.1611L26.1414 16.9337ZM39.163 9.47174C38.7092 8.35742 38.4922 8.07884 37.9989 7.91965L37.6241 7.80026V7.2829H43.4838V7.80026L42.9511 7.93955C42.5367 8.05894 42.3395 8.25793 42.3395 8.7355C42.3395 9.01407 42.4381 9.35235 42.5959 9.79012L44.2335 14.327H44.3322L45.9105 9.79012C46.0881 9.31255 46.167 8.97428 46.167 8.6957C46.167 8.25793 45.9697 8.03905 45.5554 7.93955L45.0227 7.80026V7.2829H48.6332V7.80026L48.2584 7.91965C47.7454 8.09874 47.5284 8.39722 47.0549 9.69063L44.0362 17.4909H42.3789L39.163 9.47174ZM48.1794 12.3371C48.1794 8.91458 50.6851 7.02422 53.2697 7.02422C55.953 7.02422 57.63 8.37732 57.6892 11.9392H51.2376C51.2967 15.1627 52.5003 16.0383 54.5127 16.0383C55.7162 16.0383 56.6435 15.6801 57.3735 15.302V15.9587C56.683 16.7148 55.2032 17.7495 53.25 17.7495C49.8565 17.7097 48.1794 15.6801 48.1794 12.3371ZM51.2376 11.183L54.5719 11.0039C54.5719 8.636 54.2562 7.76047 53.0921 7.76047C52.1057 7.76047 51.3165 8.7156 51.2376 11.183ZM62.8189 8.53651C63.3713 7.93955 64.4959 6.96452 65.7981 6.96452C66.6267 6.96452 67.3173 7.64108 67.3173 8.49671C67.3173 9.35235 66.6465 10.0289 65.7981 10.0289C65.1865 10.0289 64.634 9.65083 64.417 9.11357C64.2986 8.89468 64.0421 8.83499 63.8646 8.83499C63.5094 8.83499 63.0951 9.09367 62.8386 9.33245V15.7C62.8386 16.6153 62.9175 16.7148 63.5094 16.8143L64.1605 16.9536V17.4909H58.5375V16.9536L59.0505 16.8143C59.7016 16.6352 59.7805 16.5357 59.7805 15.7V9.59113C59.7805 8.75539 59.6819 8.6957 59.1294 8.31763L58.4784 7.87986V7.48189L62.5821 7.00432L62.7992 7.16351L62.7597 8.51661L62.8189 8.53651ZM67.9092 16.9536L68.4221 16.8143C69.0732 16.6352 69.1521 16.5357 69.1521 15.7V9.59113C69.1521 8.75539 69.0535 8.6957 68.501 8.31763L67.85 7.87986V7.48189L71.9538 7.00432L72.1708 7.14361L72.1313 8.39722H72.2102C73.2362 7.66097 74.5186 7.00432 75.9392 7.00432C77.5964 7.00432 78.4843 7.85996 78.4843 9.63093V15.6801C78.4843 16.5357 78.5632 16.6352 79.1946 16.7944L79.7075 16.9337V17.471H74.2819V16.9337L74.7554 16.8143C75.3473 16.6551 75.4064 16.5954 75.4064 15.6801V10.407C75.4064 9.21306 74.9724 8.83499 74.0648 8.83499C73.3743 8.83499 72.6838 8.99418 72.2497 9.09367V15.7C72.2497 16.6352 72.3089 16.675 72.9008 16.8342L73.3743 16.9536V17.4909H67.9486V16.9536H67.9092ZM80.0824 12.3968C80.0824 8.636 82.7262 7.02422 85.3502 7.02422C88.1716 7.02422 90.6378 8.7355 90.6378 12.2973C90.6378 16.0582 88.0335 17.7097 85.3502 17.7097C82.5289 17.7097 80.0824 15.9985 80.0824 12.3968ZM87.3627 12.4963C87.3627 8.53651 86.6129 7.78036 85.2713 7.78036C84.0481 7.78036 83.3181 8.6758 83.3181 12.0586C83.3181 16.0781 83.9691 16.9536 85.3897 16.9536C86.5537 16.9536 87.3627 16.2571 87.3627 12.4963ZM92.3148 15.0035V8.43702H91.0916V7.95945C92.6108 7.3625 93.7748 6.22828 94.3272 4.65629H95.4321V7.2829H98.0167L97.7602 8.43702H95.4321V14.8046C95.4321 15.7796 95.7281 16.1776 96.6948 16.1776C97.1683 16.1776 97.7405 16.0781 98.0956 15.9985V16.5556C97.6221 16.9934 96.6553 17.7097 95.0178 17.7097C93.2618 17.7097 92.3148 16.9337 92.3148 15.0035ZM98.4902 12.3371C98.4902 8.91458 100.996 7.02422 103.58 7.02422C106.264 7.02422 107.941 8.37732 108 11.9392H101.568C101.627 15.1627 102.831 16.0383 104.843 16.0383C106.047 16.0383 106.974 15.6801 107.704 15.302V15.9587C107.013 16.7148 105.534 17.7495 103.58 17.7495C100.167 17.7097 98.4902 15.6801 98.4902 12.3371ZM101.548 11.183L104.883 11.0039C104.883 8.636 104.567 7.76047 103.403 7.76047C102.416 7.76047 101.627 8.7156 101.548 11.183Z" fill="black" />
  <path d="M6.37269 5.39251C6.37269 5.63129 6.35297 6.02926 6.11621 6.28794C5.85972 6.52672 5.46513 6.54662 5.22837 6.54662H2.70297C1.97297 6.54662 1.53892 6.54662 1.24297 6.58642C1.08513 6.60632 0.887837 6.68591 0.789188 6.72571C0.749729 6.74561 0.749729 6.72571 0.769459 6.70581L6.53053 0.795942C6.55026 0.776043 6.56999 0.776043 6.55026 0.81584C6.5108 0.915333 6.43188 1.11432 6.41216 1.27351C6.3727 1.57199 6.37269 2.00975 6.37269 2.746V5.39251ZM11.7392 23.2614C11.0684 22.8236 10.7132 22.2466 10.5751 21.8884C10.437 21.5501 10.3581 21.1721 10.3581 20.794C10.3581 19.1424 11.6997 17.7893 13.357 17.7893C13.8503 17.7893 14.2448 18.1873 14.2448 18.6847C14.2448 19.023 14.0673 19.3016 13.7911 19.4608C13.6924 19.5205 13.5543 19.5603 13.4557 19.5802C13.357 19.6001 12.9821 19.6399 12.8046 19.7991C12.6073 19.9582 12.4494 20.2169 12.4494 20.4955C12.4494 20.794 12.5678 21.0726 12.7651 21.2715C13.1203 21.6297 13.5938 21.8287 14.1067 21.8287C15.4484 21.8287 16.5335 20.7343 16.5335 19.3812C16.5335 18.1674 15.7246 17.0929 14.6592 16.6153C14.5013 16.5357 14.2448 16.476 14.0081 16.4163C13.7121 16.3566 13.4359 16.3168 13.4162 16.3168C12.5876 16.2173 10.5159 15.5607 10.3778 13.7101C10.3778 13.7101 9.7662 16.4959 8.54296 17.252C8.42458 17.3117 8.26675 17.3714 8.08918 17.4112C7.91161 17.451 7.71432 17.4709 7.65513 17.4709C5.66243 17.5903 3.55135 16.9536 2.09135 15.4413C2.09135 15.4413 1.10486 14.6254 0.591891 12.3371C0.473513 11.7799 0.236756 10.785 0.0986485 9.84978C0.0394594 9.51151 0.0197297 9.25282 0 9.01404C0 8.03901 0.591891 7.38236 1.34162 7.28287C1.36135 7.28287 1.42054 7.28287 1.46 7.28287C1.91378 7.28287 5.36648 7.28287 5.36648 7.28287C6.05702 7.28287 6.45161 7.10378 6.7081 6.865C7.04351 6.54662 7.12242 6.08896 7.12242 5.55169C7.12242 5.55169 7.12242 1.93016 7.12242 1.47249C7.12242 1.45259 7.12242 1.373 7.12242 1.3531C7.22107 0.616855 7.87215 0 8.83891 0C8.83891 0 9.13485 0 9.31242 0C9.50972 0 9.74647 0.0198985 9.9635 0.0397971C10.1213 0.0596956 10.2594 0.0994927 10.4962 0.159188C11.6997 0.457667 11.9562 1.69138 11.9562 1.69138C11.9562 1.69138 14.2251 2.08935 15.3694 2.28833C16.4546 2.48732 19.1378 2.66641 19.6508 5.39251C20.8543 11.8794 20.1243 18.1674 20.0651 18.1674C19.2167 24.2961 14.1659 23.9976 14.1659 23.9976C13.0808 23.9976 12.2719 23.6395 11.7392 23.2614ZM16.277 10.2279C15.6259 10.1682 15.0735 10.4268 14.8762 10.9243C14.8367 11.0238 14.7973 11.1432 14.817 11.2029C14.8367 11.2626 14.8762 11.2825 14.9157 11.3024C15.1524 11.4218 15.547 11.4815 16.1192 11.5412C16.6913 11.6009 17.0859 11.6406 17.3424 11.6009C17.3819 11.6009 17.4213 11.581 17.4608 11.5213C17.5002 11.4616 17.4805 11.3422 17.4805 11.2427C17.4016 10.6855 16.9281 10.3074 16.277 10.2279Z" fill="#00A82D" />
</svg>