<svg width="62" height="24" viewBox="0 0 62 24" fill="none" xmlns="http://www.w3.org/2000/svg">
  <path d="M0 0.5V18.4476L2.23889 18.4565V9.91004H7.62084V7.64878H2.23028V2.75236H9.24833V0.5H0ZM13.2611 4.15006C13.6494 4.15006 14.0217 3.99061 14.2962 3.70679C14.5708 3.42296 14.725 3.03801 14.725 2.63662C14.725 2.23523 14.5708 1.85028 14.2962 1.56646C14.0217 1.28263 13.6494 1.12318 13.2611 1.12318C12.8729 1.12318 12.5005 1.28263 12.226 1.56646C11.9515 1.85028 11.7972 2.23523 11.7972 2.63662C11.7972 3.03801 11.9515 3.42296 12.226 3.70679C12.5005 3.99061 12.8729 4.15006 13.2611 4.15006ZM12.1331 6.40242V18.4565H14.3719V6.40242H12.1331Z" fill="black" />
  <path fill-rule="evenodd" clip-rule="evenodd" d="M22.6472 6.05521C19.685 6.05521 17.6183 8.64586 17.6183 11.7262C17.6183 14.8065 19.685 17.3971 22.6472 17.3971C24.0077 17.3971 25.1272 16.863 25.9452 15.9727V17.5752C25.9509 18.054 25.8648 18.5292 25.6917 18.9734C25.5187 19.4176 25.2622 19.8219 24.9371 20.1629C24.612 20.504 24.2248 20.7751 23.7977 20.9605C23.3707 21.1459 22.9123 21.2419 22.4491 21.243C21.7344 21.243 21.0283 20.9582 20.4686 20.5486L19.3491 22.5517C20.2147 23.1302 21.2153 23.4564 22.2453 23.4959C23.2753 23.5355 24.2965 23.2869 25.2012 22.7763C26.1059 22.2658 26.8606 21.5123 27.3856 20.5953C27.9106 19.6783 28.1865 18.6318 28.1841 17.5663V6.41131H25.9452V7.48853C25.1272 6.59827 24.0077 6.06411 22.6472 6.06411V6.05521ZM19.8486 11.7262C19.8486 9.8121 21.2608 8.30757 22.8969 8.30757C24.533 8.30757 25.9366 9.82101 25.9366 11.7262C25.9366 13.6402 24.5244 15.1359 22.8969 15.1359C21.2608 15.1359 19.8486 13.6402 19.8486 11.7262Z" fill="black" />
  <path d="M36.2269 8.30762C35.5866 8.31931 34.9764 8.59113 34.5285 9.06427C34.0805 9.53742 33.8307 10.1739 33.833 10.836V18.4566H31.5941V6.40247H33.833V7.50639C34.168 7.04741 34.6031 6.67673 35.1029 6.42456C35.6027 6.17239 36.1531 6.04585 36.7091 6.05526C38.2763 6.05526 39.4819 6.8565 40.1708 8.08506C40.5551 7.46917 41.0811 6.9614 41.7018 6.60717C42.3224 6.25294 43.0183 6.06332 43.7272 6.05526C46.2675 6.05526 47.8605 8.17408 47.8605 10.8003V18.4566H45.6388V10.8271C45.6412 10.165 45.3914 9.52852 44.9434 9.05537C44.4954 8.58222 43.8853 8.31041 43.245 8.29872C42.6046 8.31041 41.9945 8.58222 41.5465 9.05537C41.0985 9.52852 40.8487 10.165 40.8511 10.8271V18.4477H38.6122V10.8271C38.6146 10.1665 38.3659 9.53134 37.9198 9.05844C37.4737 8.58555 36.8657 8.31272 36.2269 8.29872V8.30762Z" fill="black" />
  <path fill-rule="evenodd" clip-rule="evenodd" d="M59.7697 7.77344C59.2613 7.22536 58.6501 6.7903 57.9734 6.49486C57.2968 6.19942 56.569 6.04983 55.8345 6.05524C52.5106 6.05524 50.1511 8.95749 50.1511 12.4295C50.1511 15.9015 52.5106 18.8038 55.8345 18.8038C56.5687 18.8076 57.2961 18.6573 57.9726 18.362C58.649 18.0666 59.2604 17.6324 59.7697 17.0856V18.4566H62V6.40244H59.7611V7.77344H59.7697ZM52.3814 12.4295C52.3814 10.1326 54.0864 8.3076 56.0756 8.3076C58.0561 8.3076 59.7697 10.1326 59.7697 12.4295C59.7697 14.7264 58.0647 16.5425 56.0756 16.5425C54.095 16.5425 52.3814 14.7264 52.3814 12.4295Z" fill="black" />
</svg>