<svg width="19" height="18" viewBox="0 0 19 18" fill="none" xmlns="http://www.w3.org/2000/svg">
  <path d="M9.03225 5.99861C7.37966 5.99861 6.03103 7.34725 6.03103 8.99983C6.03103 10.6524 7.37966 12.0011 9.03225 12.0011C10.6848 12.0011 12.0335 10.6524 12.0335 8.99983C12.0335 7.34725 10.6848 5.99861 9.03225 5.99861ZM18.0337 8.99983C18.0337 7.75702 18.0449 6.52546 17.9751 5.28489C17.9053 3.84395 17.5766 2.5651 16.5229 1.51141C15.467 0.455468 14.1904 0.129004 12.7494 0.0592081C11.5066 -0.0105877 10.2751 0.000669689 9.0345 0.000669689C7.79168 0.000669689 6.56012 -0.0105877 5.31956 0.0592081C3.87861 0.129004 2.59977 0.45772 1.54608 1.51141C0.490136 2.56736 0.163672 3.84395 0.0938761 5.28489C0.0240802 6.52771 0.0353377 7.75927 0.0353377 8.99983C0.0353377 10.2404 0.0240802 11.4742 0.0938761 12.7148C0.163672 14.1557 0.492388 15.4346 1.54608 16.4883C2.60202 17.5442 3.87861 17.8707 5.31956 17.9405C6.56238 18.0103 7.79393 17.999 9.0345 17.999C10.2773 17.999 11.5089 18.0103 12.7494 17.9405C14.1904 17.8707 15.4692 17.5419 16.5229 16.4883C17.5789 15.4323 17.9053 14.1557 17.9751 12.7148C18.0472 11.4742 18.0337 10.2427 18.0337 8.99983ZM9.03225 13.6176C6.47682 13.6176 4.41446 11.5553 4.41446 8.99983C4.41446 6.4444 6.47682 4.38205 9.03225 4.38205C11.5877 4.38205 13.65 6.4444 13.65 8.99983C13.65 11.5553 11.5877 13.6176 9.03225 13.6176ZM13.8392 5.27138C13.2425 5.27138 12.7607 4.78957 12.7607 4.19292C12.7607 3.59628 13.2425 3.11447 13.8392 3.11447C14.4358 3.11447 14.9176 3.59628 14.9176 4.19292C14.9178 4.3346 14.89 4.47492 14.8359 4.60584C14.7818 4.73677 14.7023 4.85573 14.6021 4.95591C14.502 5.05609 14.383 5.13552 14.2521 5.18965C14.1212 5.24379 13.9808 5.27156 13.8392 5.27138Z" fill="white" />
</svg>