<svg width="19" height="18" viewBox="0 0 19 18" fill="none" xmlns="http://www.w3.org/2000/svg">
  <path d="M18.0685 17.9992V17.9985H18.0728V11.397C18.0728 8.16745 17.4111 5.67969 13.818 5.67969C12.0907 5.67969 10.9315 6.67569 10.4583 7.61995H10.4083V5.98119H7.00146V17.9985H10.5489V12.048C10.5489 10.4812 10.8316 8.9662 12.6781 8.9662C14.4975 8.9662 14.5246 10.7542 14.5246 12.1485V17.9992H18.0685Z" fill="white" />
  <path d="M1.22607 5.98242H4.77777V17.9997H1.22607V5.98242Z" fill="white" />
  <path d="M2.99995 0C1.86435 0 0.942871 0.968253 0.942871 2.16151C0.942871 3.35476 1.86435 4.34326 2.99995 4.34326C4.13556 4.34326 5.05704 3.35476 5.05704 2.16151C5.05632 0.968253 4.13485 0 2.99995 0V0Z" fill="white" />
</svg>