<svg width="113" height="22" viewBox="0 0 113 22" fill="none" xmlns="http://www.w3.org/2000/svg">
  <path d="M112.003 10.2637C112.666 10.9515 113 11.884 113 13.0654V19.2806H110.539V13.77C110.539 13.0738 110.338 12.5253 109.936 12.1245C109.533 11.7236 108.99 11.5211 108.301 11.5211C107.488 11.5338 106.841 11.808 106.366 12.3397C105.891 12.8713 105.652 13.5549 105.652 14.3861V19.2806H103.208V5.47046H105.652V11.2215C106.341 9.91772 107.552 9.25527 109.281 9.22996C110.428 9.22996 111.339 9.57173 112.003 10.2637ZM97.7724 11.3692C96.9592 11.3692 96.2959 11.6435 95.7908 12.1878C95.2858 12.7363 95.029 13.4409 95.029 14.3101C95.029 15.2046 95.2858 15.9219 95.7908 16.4705C96.3001 17.0148 96.9592 17.289 97.7767 17.289C98.9793 17.289 99.8824 16.8966 100.486 16.116L102.009 17.365C101.56 18.0105 100.944 18.5253 100.225 18.8544C99.4843 19.2004 98.6284 19.3734 97.6483 19.3734C96.6597 19.3734 95.778 19.1624 95.0076 18.7405C94.2501 18.3312 93.6253 17.711 93.2144 16.9641C92.7864 16.2004 92.5724 15.3228 92.5724 14.3312C92.5724 13.327 92.7907 12.4367 93.223 11.6688C93.6381 10.9135 94.2672 10.2975 95.029 9.88397C95.7994 9.46202 96.6853 9.25105 97.6911 9.25105C98.607 9.25105 99.4244 9.40717 100.143 9.72363C100.862 10.0401 101.449 10.4916 101.902 11.0738L100.417 12.4705C99.7283 11.7363 98.8509 11.3692 97.7724 11.3692ZM91.0103 9.32278V19.2806H88.5665V17.6983C88.2199 18.23 87.7362 18.6646 87.167 18.9557C86.5978 19.2468 85.943 19.3945 85.2026 19.3945C84.2482 19.3945 83.4136 19.1793 82.6903 18.7532C81.9713 18.327 81.4064 17.7236 81.0084 16.9473C80.6103 16.1709 80.4092 15.2806 80.4092 14.2764C80.4092 13.2848 80.6103 12.4072 81.0126 11.6435C81.4107 10.8797 81.9756 10.289 82.6946 9.86709C83.4136 9.44515 84.2439 9.23418 85.1855 9.23418C85.9259 9.23418 86.585 9.38186 87.1585 9.67299C87.732 9.96413 88.2199 10.3945 88.5665 10.9304V9.33122L91.0103 9.32278ZM87.6806 16.6266C88.1942 16.1371 88.4895 15.4873 88.5665 14.6814V13.9768C88.4895 13.1667 88.1985 12.5211 87.6849 12.0316C87.1713 11.5422 86.5208 11.2975 85.729 11.2975C84.8902 11.2975 84.2054 11.5802 83.679 12.1456C83.1525 12.711 82.8829 13.4409 82.8701 14.3312C82.8829 15.2257 83.1525 15.9515 83.679 16.5169C84.2054 17.0823 84.8902 17.365 85.729 17.365C86.5165 17.365 87.167 17.1203 87.6806 16.6266ZM77.9483 10.6055C78.7572 11.5127 79.1595 12.7827 79.1595 14.4198C79.1595 14.7405 79.1509 14.9852 79.1424 15.1456H71.7169C71.8795 15.8544 72.2133 16.4072 72.7226 16.8122C73.2277 17.2173 73.8525 17.4156 74.5929 17.4156C75.0979 17.4156 75.603 17.3186 76.0695 17.1245C76.536 16.9388 76.9554 16.6561 77.302 16.2975L78.616 17.6561C78.1067 18.2089 77.4818 18.6392 76.7799 18.9219C76.0609 19.2215 75.2606 19.3692 74.3832 19.3692C73.3561 19.3692 72.4487 19.1582 71.6655 18.7363C70.8994 18.3312 70.266 17.711 69.8509 16.9599C69.4229 16.1962 69.2132 15.3186 69.2132 14.327C69.2132 13.3354 69.4272 12.4536 69.8637 11.6857C70.2831 10.9304 70.9123 10.3059 71.6784 9.88819C72.4573 9.45781 73.3389 9.24683 74.3276 9.24683C75.9325 9.24683 77.1394 9.70253 77.9483 10.6055ZM76.9254 13.5295C76.8997 12.7954 76.6558 12.2131 76.1936 11.7785C75.7314 11.3439 75.1151 11.1245 74.349 11.1245C73.6342 11.1245 73.0351 11.3397 72.5514 11.7658C72.0678 12.192 71.7725 12.7785 71.657 13.5253H76.9254V13.5295ZM66.5554 9.7616C67.1375 9.41983 67.818 9.24262 68.5969 9.22996V11.5759C67.5569 11.5127 66.7266 11.7532 66.106 12.2932C65.4855 12.8333 65.173 13.5633 65.173 14.4789V19.2806H62.7293V9.32278H65.173V11.2384C65.5154 10.5928 65.9734 10.0992 66.5554 9.7616ZM60.8975 18.6646C60.0972 19.1498 59.2541 19.3903 58.3767 19.3903C57.5122 19.3903 56.8017 19.1371 56.2539 18.635C55.7018 18.1329 55.4279 17.3903 55.4279 16.4114V6.99367L57.8546 6.70675V9.72785H60.7306V11.4958H57.8546V15.9852C57.8546 16.4451 57.9402 16.77 58.1156 16.9599C58.2911 17.154 58.5522 17.2468 58.9031 17.2468C59.2797 17.2468 59.7548 17.1118 60.3326 16.8376L60.8975 18.6646ZM50.8999 9.32278H53.3265V14.9051C53.3265 18.1624 51.0283 19.3734 48.6958 19.3734C46.3633 19.3734 44.0693 18.1624 44.0693 14.9051V9.32278H46.4959V14.9895C46.4959 16.2384 47.4375 17.2511 48.7 17.2511C49.9626 17.2511 50.9041 16.2384 50.9041 14.9895L50.8999 9.32278ZM39.0405 6.95992C40.089 7.5211 40.9621 8.35232 41.5699 9.36076C42.1861 10.3776 42.49 11.5084 42.49 12.7489C42.49 13.9895 42.1819 15.1203 41.5699 16.1456C40.9621 17.1624 40.089 18.0021 39.0405 18.5759C37.9663 19.1709 36.7807 19.4705 35.4754 19.4705C34.1701 19.4705 32.9845 19.1709 31.9146 18.5759C30.866 18.0021 29.993 17.1624 29.3852 16.1456C28.7732 15.1203 28.4651 13.9895 28.4651 12.7489C28.4651 11.5084 28.7732 10.3776 29.3852 9.36076C29.993 8.3481 30.866 7.5211 31.9146 6.95992C32.9845 6.37764 34.1743 6.0865 35.4754 6.0865C36.7807 6.08228 37.9705 6.37342 39.0405 6.95992ZM33.2799 8.90506C32.5994 9.28481 32.0344 9.83755 31.645 10.5042C31.2427 11.1835 31.0415 11.9304 31.0415 12.7489C31.0415 13.5675 31.2469 14.3186 31.6535 15.0021C32.0473 15.673 32.6122 16.23 33.2884 16.6224C33.9732 17.019 34.7136 17.2173 35.5182 17.2173C36.2928 17.2215 37.0546 17.0148 37.718 16.6224C38.39 16.23 38.9421 15.673 39.3272 15.0021C39.7253 14.3143 39.9264 13.538 39.9179 12.7489C39.9179 11.9304 39.721 11.1835 39.3272 10.5042C38.9463 9.84177 38.39 9.28903 37.718 8.90506C37.0504 8.51688 36.2928 8.31435 35.5182 8.31857C34.7307 8.31435 33.9603 8.51688 33.2799 8.90506ZM10.049 0.5C13.5114 0.5 18.7413 1.55063 21.1723 3.95992C21.7885 4.57173 22.5974 5.76582 22.5974 7.5211C22.5974 10.635 20.0595 15.4156 17.2605 18.192C15.8139 19.6266 13.5114 21.5 10.4128 21.5C7.38268 21.5 5.07158 19.4662 4.40393 18.7996C1.83604 16.2595 0 12.403 0 8.81224C0 6.54219 0.654812 4.55907 2.31966 2.90928C3.86039 1.38608 6.51816 0.5 10.049 0.5ZM14.3331 12.9262C15.5015 11.77 15.8182 10.3439 15.8182 9.55907C15.8182 8.98945 15.6684 8.15823 14.9494 7.44515C13.8495 6.35232 12.6255 6.0443 11.2987 6.0443C9.61675 6.0443 8.48688 6.57173 7.73363 7.31435C7.14301 7.90506 6.63372 8.79958 6.63372 10.0781C6.63372 11.3523 7.32277 12.5844 8.06745 13.327C8.76078 14.0105 9.84786 14.5169 10.9392 14.5169C12.0348 14.5169 13.1647 14.0823 14.3331 12.9262Z" fill="#5952FF" />
</svg>