<svg width="95" height="24" viewBox="0 0 95 24" fill="none" xmlns="http://www.w3.org/2000/svg">
  <path d="M35.5223 5.36768H30.2652C29.9054 5.36768 29.5995 5.63807 29.5433 6.00549L27.4171 19.9523C27.3749 20.2275 27.5809 20.4756 27.8507 20.4756H30.3605C30.7202 20.4756 31.0262 20.2052 31.0823 19.837L31.6557 16.0753C31.7111 15.7071 32.0178 15.4367 32.3768 15.4367H34.041C37.504 15.4367 39.5026 13.703 40.0245 10.2674C40.2597 8.76431 40.0345 7.58332 39.3542 6.75623C38.607 5.84802 37.2818 5.36768 35.5223 5.36768ZM36.1288 10.4614C35.8413 12.4131 34.4 12.4131 33.0063 12.4131H32.213L32.7696 8.76829C32.8026 8.548 32.9871 8.38576 33.2023 8.38576H33.5659C34.5153 8.38576 35.4108 8.38576 35.8736 8.94564C36.1495 9.27965 36.2341 9.77591 36.1288 10.4614Z" fill="#253B80" />
  <path d="M51.2368 10.3986H48.7193C48.5049 10.3986 48.3196 10.5608 48.2866 10.7811L48.1751 11.5096L47.9991 11.2456C47.4541 10.4272 46.2388 10.1537 45.0258 10.1537C42.2439 10.1537 39.8678 12.3335 39.4051 15.3914C39.1645 16.9167 39.5065 18.3753 40.3429 19.3924C41.11 20.3277 42.2077 20.7174 43.5137 20.7174C45.7552 20.7174 46.9982 19.2262 46.9982 19.2262L46.886 19.9499C46.8437 20.2267 47.0497 20.4748 47.318 20.4748H49.5857C49.9462 20.4748 50.2506 20.2044 50.3075 19.8362L51.668 10.9219C51.7111 10.6475 51.5059 10.3986 51.2368 10.3986ZM47.7277 15.4677C47.4848 16.9557 46.3433 17.9546 44.8874 17.9546C44.1564 17.9546 43.5722 17.712 43.197 17.2523C42.825 16.7958 42.6835 16.1461 42.8019 15.4224C43.0287 13.9471 44.1894 12.9157 45.623 12.9157C46.3379 12.9157 46.9191 13.1614 47.3019 13.6251C47.6854 14.0935 47.8376 14.7472 47.7277 15.4677Z" fill="#253B80" />
  <path d="M64.6444 10.3986H62.1146C61.8732 10.3986 61.6464 10.5226 61.5096 10.7302L58.0205 16.0474L56.5415 10.9378C56.4485 10.6181 56.1633 10.3986 55.8405 10.3986H53.3545C53.0524 10.3986 52.8426 10.704 52.9387 10.9982L55.7252 19.4584L53.1055 23.2845C52.8995 23.5859 53.107 24.0002 53.4629 24.0002H55.9896C56.2295 24.0002 56.4539 23.8793 56.59 23.6758L65.0041 11.1103C65.2055 10.8097 64.9987 10.3986 64.6444 10.3986Z" fill="#253B80" />
  <path d="M73.0198 5.36754H67.7619C67.403 5.36754 67.097 5.63794 67.0409 6.00536L64.9147 19.9522C64.8724 20.2273 65.0784 20.4755 65.3467 20.4755H68.0448C68.2954 20.4755 68.5099 20.2862 68.5491 20.0285L69.1525 16.0752C69.2079 15.707 69.5146 15.4366 69.8736 15.4366H71.537C75.0008 15.4366 76.9986 13.7029 77.5213 10.2673C77.7573 8.76418 77.5305 7.58319 76.8502 6.7561C76.1038 5.84789 74.7794 5.36754 73.0198 5.36754ZM73.6263 10.4613C73.3396 12.4129 71.8983 12.4129 70.5039 12.4129H69.7114L70.2687 8.76816C70.3017 8.54786 70.4847 8.38563 70.7007 8.38563H71.0643C72.0128 8.38563 72.9091 8.38563 73.3719 8.9455C73.6478 9.27952 73.7316 9.77578 73.6263 10.4613Z" fill="#179BD7" />
  <path d="M88.7335 10.3985H86.2176C86.0016 10.3985 85.8179 10.5607 85.7856 10.781L85.6741 11.5095L85.4973 11.2454C84.9523 10.4271 83.7378 10.1535 82.5248 10.1535C79.7429 10.1535 77.3676 12.3334 76.9049 15.3912C76.665 16.9166 77.0056 18.3751 77.8419 19.3923C78.6106 20.3275 79.7067 20.7172 81.0128 20.7172C83.2543 20.7172 84.4972 19.2261 84.4972 19.2261L84.385 19.9498C84.3427 20.2265 84.5488 20.4747 84.8186 20.4747H87.0854C87.4444 20.4747 87.7504 20.2043 87.8065 19.8361L89.1678 10.9218C89.2094 10.6474 89.0033 10.3985 88.7335 10.3985ZM85.2244 15.4676C84.9831 16.9555 83.84 17.9544 82.3841 17.9544C81.6546 17.9544 81.0689 17.7119 80.6937 17.2522C80.3217 16.7957 80.1818 16.146 80.2986 15.4223C80.5269 13.947 81.6861 12.9155 83.1197 12.9155C83.8346 12.9155 84.4158 13.1613 84.7986 13.6249C85.1837 14.0933 85.3359 14.7471 85.2244 15.4676Z" fill="#179BD7" />
  <path d="M91.7014 5.75002L89.5437 19.9521C89.5014 20.2273 89.7074 20.4754 89.9757 20.4754H92.1449C92.5055 20.4754 92.8114 20.205 92.8667 19.8368L94.9945 5.89079C95.0368 5.61562 94.8307 5.3667 94.5625 5.3667H92.1334C91.9189 5.36749 91.7345 5.52973 91.7014 5.75002Z" fill="#179BD7" />
  <path d="M5.58543 23.1857L5.98745 20.5437L5.09192 20.5223H0.815674L3.78745 1.02759C3.79667 0.968737 3.82665 0.913863 3.87047 0.874894C3.91428 0.835926 3.9704 0.814453 4.02882 0.814453H11.2392C13.6329 0.814453 15.2848 1.32979 16.1473 2.34696C16.5516 2.82412 16.8091 3.32276 16.9337 3.87151C17.0643 4.44729 17.0667 5.1352 16.939 5.97422L16.9298 6.03546V6.57307L17.3342 6.81006C17.6747 6.99695 17.9453 7.21088 18.1528 7.45583C18.4987 7.86381 18.7224 8.38233 18.817 8.99708C18.9146 9.62933 18.8823 10.3817 18.7224 11.2334C18.5379 12.2132 18.2397 13.0665 17.8369 13.7648C17.4664 14.4082 16.9944 14.9418 16.434 15.3553C15.899 15.7482 15.2633 16.0464 14.5446 16.2373C13.8481 16.425 13.0541 16.5196 12.1831 16.5196H11.622C11.2207 16.5196 10.831 16.6691 10.5251 16.9371C10.2184 17.2107 10.0154 17.5845 9.95315 17.9933L9.91087 18.2311L9.2006 22.8874L9.16831 23.0584C9.15986 23.1125 9.14525 23.1395 9.12373 23.1578C9.10451 23.1745 9.07684 23.1857 9.04993 23.1857H5.58543Z" fill="#253B80" />
  <path d="M17.717 6.09717C17.6955 6.23952 17.6709 6.38506 17.6432 6.53457C16.6923 11.5854 13.4392 13.3302 9.28444 13.3302H7.16899C6.66088 13.3302 6.23272 13.712 6.15354 14.2305L5.07045 21.3371L4.76374 23.3515C4.71224 23.6919 4.96591 23.9989 5.29799 23.9989H9.04998C9.49429 23.9989 9.87172 23.6649 9.94167 23.2116L9.97857 23.0143L10.685 18.3763L10.7304 18.1218C10.7995 17.6669 11.1777 17.3329 11.622 17.3329H12.1832C15.8183 17.3329 18.6641 15.8059 19.4958 11.3874C19.8432 9.54152 19.6634 8.00027 18.744 6.91631C18.4657 6.58945 18.1206 6.31826 17.717 6.09717Z" fill="#179BD7" />
  <path d="M16.7221 5.68709C16.5768 5.64335 16.4269 5.60358 16.2732 5.5678C16.1187 5.5328 15.9603 5.50179 15.7974 5.47475C15.227 5.37932 14.602 5.33398 13.9325 5.33398H8.28107C8.14193 5.33398 8.00972 5.36659 7.89134 5.42544C7.63075 5.55507 7.43704 5.81036 7.39015 6.1229L6.18791 14.0009L6.15332 14.2308C6.2325 13.7123 6.66066 13.3305 7.16877 13.3305H9.28421C13.439 13.3305 16.6921 11.5849 17.643 6.53486C17.6714 6.38534 17.6953 6.23981 17.7168 6.09745C17.4762 5.96544 17.2156 5.85251 16.935 5.75628C16.8659 5.73242 16.7944 5.70936 16.7221 5.68709Z" fill="#222D65" />
  <path d="M7.39022 6.12285C7.43712 5.81031 7.63083 5.55503 7.89141 5.42619C8.01056 5.36734 8.14201 5.33473 8.28114 5.33473H13.9326C14.6021 5.33473 15.2271 5.38006 15.7974 5.4755C15.9604 5.50254 16.1188 5.53355 16.2733 5.56854C16.427 5.60433 16.5769 5.6441 16.7222 5.68784C16.7944 5.7101 16.8659 5.73317 16.9359 5.75623C17.2165 5.85246 17.477 5.96618 17.7176 6.09741C18.0005 4.23089 17.7153 2.96003 16.7399 1.80926C15.6645 0.54238 13.7235 0 11.2398 0H4.02949C3.52215 0 3.08938 0.381734 3.01097 0.901051L0.00767836 20.5961C-0.0515112 20.9858 0.239056 21.3373 0.618791 21.3373H5.0703L6.18799 14.0009L7.39022 6.12285Z" fill="#253B80" />
</svg>