<svg width="22" height="18" viewBox="0 0 22 18" fill="none" xmlns="http://www.w3.org/2000/svg">
  <path d="M21.9812 2.51254C21.1672 2.85385 20.2998 3.08008 19.3955 3.18992C20.3258 2.659 21.0358 1.82469 21.3696 0.819077C20.5023 1.31338 19.5447 1.66254 18.5241 1.85738C17.7005 1.01915 16.5267 0.5 15.2462 0.5C12.7618 0.5 10.7617 2.42754 10.7617 4.79054C10.7617 5.13054 10.7918 5.45746 10.8657 5.76869C7.13503 5.59477 3.83392 3.88562 1.6163 1.282C1.22914 1.92408 1.00204 2.659 1.00204 3.45015C1.00204 4.93569 1.80235 6.25254 2.9953 7.01492C2.27433 7.00185 1.56705 6.80177 0.967841 6.48662C0.967841 6.49969 0.967841 6.51669 0.967841 6.53369C0.967841 8.61815 2.52332 10.3495 4.56309 10.7484C4.19782 10.8438 3.79972 10.8896 3.38656 10.8896C3.09927 10.8896 2.80924 10.8739 2.537 10.8164C3.11842 12.5151 4.7683 13.7639 6.73009 13.8045C5.20334 14.9461 3.26481 15.6339 1.16621 15.6339C0.798202 15.6339 0.445243 15.6182 0.0922852 15.5751C2.08007 16.8004 4.43586 17.5 6.97634 17.5C15.2339 17.5 19.7485 10.9615 19.7485 5.294C19.7485 5.10438 19.7417 4.92131 19.7321 4.73954C20.6227 4.13538 21.371 3.38085 21.9812 2.51254Z" fill="white" />
</svg>