<svg width="24" height="16" viewBox="0 0 24 16" fill="none" xmlns="http://www.w3.org/2000/svg">
  <path d="M23.4972 2.50708C23.3613 2.02231 23.0966 1.58342 22.7312 1.23708C22.3555 0.88008 21.895 0.624712 21.3932 0.495076C19.5152 7.59661e-05 11.9912 7.60774e-05 11.9912 7.60774e-05C8.85453 -0.0356113 5.71863 0.121351 2.6012 0.470076C2.09939 0.609289 1.63976 0.870363 1.2632 1.23008C0.893199 1.58608 0.625199 2.02508 0.485199 2.50608C0.148892 4.31782 -0.0145088 6.15742 -0.00280079 8.00008C-0.0148008 9.84108 0.148199 11.6801 0.485199 13.4941C0.622199 13.9731 0.889199 14.4101 1.2602 14.7631C1.6312 15.1161 2.0932 15.3711 2.6012 15.5061C4.5042 16.0001 11.9912 16.0001 11.9912 16.0001C15.1319 16.0358 18.2718 15.8789 21.3932 15.5301C21.895 15.4004 22.3555 15.1451 22.7312 14.7881C23.1012 14.4351 23.3642 13.9961 23.4962 13.5181C23.8413 11.707 24.0091 9.86667 23.9972 8.02308C24.0232 6.17168 23.8556 4.32264 23.4972 2.50608V2.50708ZM9.5992 11.4241V4.57708L15.8592 8.00108L9.5992 11.4241Z" fill="white" />
</svg>